<svg width="100" height="100" viewBox="0 0 100 100" fill="none" xmlns="http://www.w3.org/2000/svg">
<path d="M11 59.256H32.4762C38.1538 55.5369 46.1025 45.4208 32.4762 34.7097C15.4434 21.3208 19.8867 91.9844 39.1413 59.256" stroke="black"/>
<path d="M29 59.256H50.4762C56.1538 55.5369 64.1025 45.4208 50.4762 34.7097C33.4434 21.3208 37.8867 91.9844 57.1413 59.256" stroke="black"/>
<path d="M35 59.256H56.4762C62.1538 55.5369 70.1025 45.4208 56.4762 34.7097C39.4434 21.3208 43.8867 91.9844 63.1413 59.256" stroke="black"/>
<path d="M41 59.256H62.4762C68.1538 55.5369 76.1025 45.4208 62.4762 34.7097C45.4434 21.3208 49.8867 91.9844 69.1413 59.256" stroke="black"/>
<path d="M47 59.256H68.4762C74.1538 55.5369 82.1025 45.4208 68.4762 34.7097C51.4434 21.3208 55.8867 91.9844 75.1413 59.256" stroke="black"/>
<path d="M23 59.256H44.4762C50.1538 55.5369 58.1025 45.4208 44.4762 34.7097C27.4434 21.3208 31.8867 91.9844 51.1413 59.256" stroke="black"/>
<path d="M17 59.256H38.4762C44.1538 55.5369 52.1025 45.4208 38.4762 34.7097C21.4434 21.3208 25.8867 91.9844 45.1413 59.256" stroke="black"/>
<path d="M12 59H89" stroke="black"/>
</svg>
